# xmcd
#
# Track frame offsets:
#  150
#  11112
#  25680
#  39490
#  52960
#  75345
#  87152
#  103615
#  112995
#  123540
#  136560
#
# Disc length: 2010 seconds
#
# Revision: 0
# Processed by: cddbd v1.4PL0 Copyright (c) Steve Scherf et al.
# Submitted via: AltoMP3_Maker 3.0
#
DISCID=7707d80b
DTITLE=J.D. Crowe - The Model Church
DYEAR=1900
DGENRE=
TTITLE0=I'll Talk It All Over With Him
TTITLE1=It's Me Again Lord
TTITLE2=I Shall Be At Home With Jesus
TTITLE3=Journey's End
TTITLE4=The Model Church
TTITLE5=Goin' Up
TTITLE6=Let The Spirit Descend
TTITLE7=Look For Me
TTITLE8=Are You Lost In Sin
TTITLE9=No Mother Or Dad
TTITLE10=Oh Heaven
EXTD=
EXTT0=
EXTT1=
EXTT2=
EXTT3=
EXTT4=
EXTT5=
EXTT6=
EXTT7=
EXTT8=
EXTT9=
EXTT10=
PLAYORDER=
